<?xml version="1.0" encoding="UTF-8"?>
<svg id="Layer_2" data-name="Layer 2" xmlns="http://www.w3.org/2000/svg" viewBox="0 0 1002.58 375.96">
  <defs>
    <style>
      .cls-1 {
        fill: #fff;
        font-family: BDSupperRegular, 'BD Supper';
        font-size: 150px;
      }

      .cls-2 {
        stroke: #fcfcfc;
        stroke-width: 5px;
      }

      .cls-2, .cls-3 {
        fill: none;
        stroke-linecap: round;
        stroke-linejoin: round;
      }

      .cls-3 {
        stroke: #fff;
        stroke-width: 7px;
      }
    </style>
  </defs>
  <g id="Layer_3" data-name="Layer 3">
    <g id="Up">
      <path class="cls-3" d="M233.58,130.85l-37.55-11.3c-.09,.09-.18,.18-.27,.27l37.24,11.21,.58-.18Z"/>
      <path class="cls-3" d="M74.38,120.79l-33.8,10.07,.67,.21,33.47-9.97c-.11-.1-.23-.2-.35-.31Z"/>
    </g>
    <g id="Left">
      <polygon class="cls-3" points="60.72 138.1 137.4 162.98 100.13 205.89 40.58 186.56 40.58 238.18 137.58 278.96 137.58 161.96 60.72 138.1"/>
      <polygon class="cls-3" points="99.46 205.33 3.5 174.2 40.77 131.3 136.73 162.43 99.46 205.33"/>
    </g>
    <g id="Right">
      <polygon class="cls-3" points="233.58 131.85 137.58 161.96 137.58 278.96 233.58 238.39 233.58 187.35 176.45 205.89 139.18 162.98 233.58 132.35 233.58 131.85"/>
      <polygon class="cls-3" points="175.83 204.98 271.79 173.85 234.52 130.94 138.56 162.08 175.83 204.98"/>
    </g>
    <text class="cls-1" transform="translate(294.38 237.03)"><tspan x="0" y="0">GOOD’IS</tspan></text>
    <g id="Mouve">
      <path class="cls-2" d="M166.58,137.96c0-37.03,19.68-67,44-67"/>
      <path class="cls-2" d="M138.58,124.96c0-53.62,26.84-97,60-97"/>
      <path class="cls-2" d="M106.18,54.73c-4.72-10.02-13.08-22.77-25.6-22.77"/>
      <path class="cls-2" d="M117.58,113.96c0-10.42-.86-20.86-2.75-31.11"/>
      <path class="cls-2" d="M95.58,131.96c0-19.9-9.84-36-22-36"/>
    </g>
    <g id="Etincelles">
      <g>
        <line class="cls-3" x1="216.48" y1="43.28" x2="213.65" y2="37.3"/>
        <line class="cls-3" x1="224.57" y1="60.34" x2="221.74" y2="54.36"/>
        <line class="cls-3" x1="213.01" y1="51.43" x2="207.71" y2="53.95"/>
        <line class="cls-3" x1="230.75" y1="43.03" x2="225.44" y2="45.54"/>
      </g>
      <g>
        <line class="cls-3" x1="112.98" y1="8.82" x2="108.2" y2="4.25"/>
        <line class="cls-3" x1="126.62" y1="21.88" x2="121.85" y2="17.31"/>
        <line class="cls-3" x1="112.65" y1="17.68" x2="108.59" y2="21.92"/>
        <line class="cls-3" x1="126.22" y1="3.5" x2="122.16" y2="7.74"/>
      </g>
      <g>
        <line class="cls-3" x1="50.43" y1="73.44" x2="52.83" y2="67.28"/>
        <line class="cls-3" x1="43.57" y1="91.03" x2="45.97" y2="84.87"/>
        <line class="cls-3" x1="42.12" y1="76.52" x2="36.64" y2="74.38"/>
        <line class="cls-3" x1="60.4" y1="83.65" x2="54.93" y2="81.51"/>
      </g>
      <g>
        <line class="cls-3" x1="114.85" y1="64.56" x2="116.41" y2="62.48"/>
        <line class="cls-3" x1="105.47" y1="74.85" x2="107.49" y2="72.42"/>
        <line class="cls-3" x1="107.24" y1="64.81" x2="105.27" y2="63.16"/>
        <line class="cls-3" x1="117.1" y1="73.58" x2="115.1" y2="72.17"/>
      </g>
      <g>
        <line class="cls-3" x1="203.97" y1="100.62" x2="206.56" y2="100.53"/>
        <line class="cls-3" x1="190.07" y1="99.76" x2="193.23" y2="99.81"/>
        <line class="cls-3" x1="199" y1="94.84" x2="199.05" y2="92.27"/>
        <line class="cls-3" x1="198.34" y1="108.02" x2="198.19" y2="105.58"/>
      </g>
      <g>
        <line class="cls-3" x1="145.48" y1="49.59" x2="146.68" y2="51.89"/>
        <line class="cls-3" x1="140.24" y1="36.68" x2="141.56" y2="39.56"/>
        <line class="cls-3" x1="148.54" y1="42.61" x2="150.88" y2="41.55"/>
        <line class="cls-3" x1="136.37" y1="47.72" x2="138.5" y2="46.53"/>
      </g>
    </g>
  </g>
</svg>